<svg width="31" height="31" viewBox="0 0 31 31" fill="none" xmlns="http://www.w3.org/2000/svg">
<path d="M23.8232 21.6667C24.4297 22.2732 24.4297 23.2167 23.8232 23.8232C23.5199 24.1265 23.1493 24.2612 22.7449 24.2612C22.3406 24.2612 21.9699 24.1265 21.6667 23.8232L15.5004 17.6569L9.33407 23.8232C9.03081 24.1265 8.66016 24.2612 8.25581 24.2612C7.85146 24.2612 7.48081 24.1265 7.17755 23.8232C6.57103 23.2167 6.57103 22.2732 7.17755 21.6667L13.3439 15.5004L7.17755 9.33407C6.57103 8.72755 6.57103 7.78407 7.17755 7.17755C7.78407 6.57103 8.72755 6.57103 9.33407 7.17755L15.5004 13.3439L21.6667 7.17755C22.2732 6.57103 23.2167 6.57103 23.8232 7.17755C24.4297 7.78407 24.4297 8.72755 23.8232 9.33407L17.6569 15.5004L23.8232 21.6667Z" fill="black"/>
</svg>
