<svg width="32" height="32" viewBox="0 0 32 32" fill="none" xmlns="http://www.w3.org/2000/svg">
<g clip-path="url(#clip0_205_12)">
<path d="M28 29V3C28 1.3 26.7 0 25 0H3C4.7 0 6 1.3 6 3V29C6 30.7 7.3 32 9 32H31C29.3 32 28 30.7 28 29Z" fill="#F42727"/>
<path d="M3 0C1.3 0 0 1.3 0 3V6H6V3C6 1.3 4.7 0 3 0ZM6.9 31.1C7.4 31.7 8.2 32 9 32H12V26L6.9 31.1Z" fill="#E20C0C"/>
<path d="M12 26V29C12 30.7 10.7 32 9 32H29C30.7 32 32 30.7 32 29V26H12Z" fill="#BF0202"/>
<path d="M12.3996 14.7998C12.2996 14.7998 12.1996 14.7998 12.1996 14.7998C12.0996 14.7998 11.9996 14.7998 11.9996 14.7998V16.6998H11.0996V11.7998H12.4996C12.6996 11.7998 12.8996 11.7998 13.0996 11.7998C13.2996 11.7998 13.3996 11.8998 13.5996 11.8998C13.8996 11.9998 14.1996 12.1998 14.3996 12.3998C14.5996 12.5998 14.6996 12.8998 14.6996 13.2998C14.6996 13.4998 14.6996 13.6998 14.5996 13.8998C14.4996 14.0998 14.3996 14.1998 14.1996 14.3998C13.9996 14.5998 13.7996 14.5998 13.4996 14.6998C13.0996 14.7998 12.7996 14.7998 12.3996 14.7998ZM11.9996 13.9998C12.0996 13.9998 12.0996 13.9998 12.1996 13.9998C12.2996 13.9998 12.3996 13.9998 12.3996 13.9998C12.5996 13.9998 12.7996 13.9998 12.9996 13.8998C13.1996 13.7998 13.2996 13.7998 13.3996 13.6998C13.4996 13.5998 13.5996 13.4998 13.5996 13.3998C13.5996 13.2998 13.6996 13.1998 13.6996 13.0998C13.6996 12.9998 13.6996 12.7998 13.5996 12.6998C13.4996 12.5998 13.3996 12.4998 13.2996 12.4998C13.1996 12.4998 13.0996 12.3998 12.9996 12.3998C12.8996 12.3998 12.6996 12.3998 12.4996 12.3998H11.9996V13.9998ZM15.5996 16.6998V11.7998H16.8996C16.9996 11.7998 17.0996 11.7998 17.2996 11.7998C17.3996 11.7998 17.4996 11.7998 17.5996 11.7998C17.6996 11.7998 17.7996 11.7998 17.8996 11.8998C17.9996 11.9998 18.0996 11.8998 18.1996 11.9998C18.4996 12.0998 18.6996 12.1998 18.8996 12.2998C19.0996 12.3998 19.2996 12.5998 19.3996 12.7998C19.4996 12.9998 19.5996 13.1998 19.6996 13.3998C19.7996 13.5998 19.7996 13.8998 19.7996 14.1998C19.7996 14.4998 19.7996 14.6998 19.6996 14.8998C19.5996 15.0998 19.5996 15.2998 19.3996 15.4998C19.2996 15.6998 19.0996 15.8998 18.8996 15.9998C18.6996 16.0998 18.4996 16.2998 18.2996 16.3998C18.0996 16.4998 17.8996 16.4998 17.5996 16.5998C17.2996 16.6998 16.9996 16.6998 16.6996 16.6998H15.5996ZM16.7996 15.9998C17.2996 15.9998 17.6996 15.8998 17.9996 15.7998C18.2996 15.6998 18.4996 15.4998 18.5996 15.1998C18.6996 14.9998 18.7996 14.5998 18.7996 14.2998C18.7996 14.0998 18.7996 13.8998 18.6996 13.7998C18.5996 13.6998 18.5996 13.4998 18.4996 13.3998C18.3996 13.2998 18.2996 13.1998 18.1996 13.0998C18.0996 12.9998 17.8996 12.8998 17.7996 12.8998C17.6996 12.7998 17.4996 12.7998 17.2996 12.7998C17.0996 12.7998 16.8996 12.7998 16.6996 12.7998H16.2996V15.9998H16.7996ZM21.5996 16.6998H20.6996V11.7998H23.7996V12.5998H21.5996V13.8998H23.4996V14.6998H21.5996V16.6998Z" fill="#E6E6E6"/>
</g>
<defs>
<clipPath id="clip0_205_12">
<rect width="32" height="32" fill="white"/>
</clipPath>
</defs>
</svg>
